<svg width="1243" height="242" viewBox="0 0 1243 242" fill="none" xmlns="http://www.w3.org/2000/svg">
<path d="M45.02 86.216C43.8202 86.216 42.7542 85.4217 42.3703 84.2418L32.4755 53.8323C31.8629 51.9502 33.2116 50 35.1252 50H158.687C160.6 50 161.949 51.9502 161.337 53.8323L151.442 84.2418C151.058 85.4217 149.992 86.216 148.792 86.216H45.02Z" fill="white"/>
<path d="M31.8285 143.108C30.7377 143.108 29.7465 142.449 29.2893 141.421L15.7633 111.012C14.9076 109.088 16.2613 106.892 18.3026 106.892H175.51C177.551 106.892 178.904 109.088 178.049 111.012L164.523 141.421C164.066 142.449 163.074 143.108 161.983 143.108H31.8285Z" fill="white"/>
<path d="M190.795 163.784C192.88 163.784 194.232 166.065 193.292 167.996L178.495 198.406C178.019 199.384 177.054 200 175.998 200H96.7978H17.5973C16.542 200 15.5766 199.384 15.1008 198.406L0.304022 167.996C-0.635584 166.065 0.716412 163.784 2.80054 163.784H96.7978H190.795Z" fill="url(#paint0_linear_138_117)"/>
<path d="M237.6 200V47.4H296.6C314.2 47.4 327.067 51.3333 335.2 59.2C341.733 65.6 345 74.4 345 85.6C345 94.6667 342.8 102.333 338.4 108.6C334.133 114.867 328.2 118.667 320.6 120C330.867 121.067 338.733 124.8 344.2 131.2C349.8 137.6 352.6 146 352.6 156.4C352.6 163.067 351.467 169 349.2 174.2C347.067 179.4 344.067 183.733 340.2 187.2C334.867 192 328.4 195.333 320.8 197.2C313.333 199.067 306.067 200 299 200H237.6ZM295.6 112.2C303.733 112.2 310 110.333 314.4 106.6C318.933 102.733 321.2 97.2667 321.2 90.2C321.2 83.8 319.267 78.8 315.4 75.2C310.6 70.8 302.6 68.6 291.4 68.6H261.2V112.2H295.6ZM296.2 178.8C301.533 178.8 306.4 178.4 310.8 177.6C315.333 176.667 319.2 174.733 322.4 171.8C326.8 167.8 329 162.067 329 154.6C329 145.133 326.133 139 320.4 136.2C314.667 133.4 307.8 132 299.8 132H261.2V178.8H296.2ZM408.867 202.2C397.934 202.2 389.134 199.333 382.467 193.6C375.801 187.733 372.467 179.8 372.467 169.8C372.467 159.533 376.467 151.467 384.467 145.6C390.467 141.2 399.067 137.933 410.267 135.8L446.667 128.8C446.534 121.067 444.467 115.133 440.467 111C436.067 106.6 430.201 104.4 422.867 104.4C416.867 104.4 411.601 106.133 407.067 109.6C402.667 112.933 399.867 117.467 398.667 123.2H376.867C378.734 111.467 384.001 102.4 392.667 96C401.334 89.6 411.467 86.4 423.067 86.4C429.601 86.4 435.734 87.4 441.467 89.4C447.334 91.2667 452.267 94.0667 456.267 97.8C461.601 102.733 464.934 108.533 466.267 115.2C467.734 121.867 468.467 129.533 468.467 138.2V200H446.467V183.6C443.401 188.8 439.534 192.867 434.867 195.8C428.201 200.067 419.534 202.2 408.867 202.2ZM413.267 184C419.134 184 424.467 182.8 429.267 180.4C435.801 177.067 440.334 172.667 442.867 167.2C445.534 161.6 446.867 154.4 446.867 145.6L415.467 151.8C407.734 153.4 402.134 155.8 398.667 159C395.867 161.8 394.467 165.2 394.467 169.2C394.467 173.867 396.134 177.533 399.467 180.2C402.934 182.733 407.534 184 413.267 184ZM542.464 202.2C528.464 202.2 516.731 198.867 507.264 192.2C497.931 185.4 492.331 175.8 490.464 163.4H512.664C514.264 169.933 517.531 175 522.464 178.6C527.531 182.2 534.197 184 542.464 184C549.264 184 554.731 182.733 558.864 180.2C562.997 177.533 565.064 173.8 565.064 169C565.064 165.267 563.797 162.333 561.264 160.2C558.731 157.933 555.531 156.2 551.664 155C547.797 153.8 542.664 152.533 536.264 151.2C527.464 149.467 520.331 147.667 514.864 145.8C509.397 143.933 504.731 140.867 500.864 136.6C496.997 132.333 495.064 126.467 495.064 119C495.064 108.467 498.997 100.4 506.864 94.8C514.731 89.2 524.731 86.4 536.864 86.4C549.397 86.4 559.864 89.6667 568.264 96.2C576.664 102.6 581.864 111.533 583.864 123H563.264C561.664 116.733 558.531 112.067 553.864 109C549.197 105.933 543.531 104.4 536.864 104.4C530.464 104.4 525.464 105.6 521.864 108C518.264 110.4 516.464 113.667 516.464 117.8C516.464 121.133 517.664 123.8 520.064 125.8C522.464 127.667 525.397 129.133 528.864 130.2C532.464 131.267 537.464 132.4 543.864 133.6C552.931 135.333 560.331 137.2 566.064 139.2C571.797 141.067 576.664 144.267 580.664 148.8C584.797 153.2 586.864 159.333 586.864 167.2C586.864 177.867 582.931 186.4 575.064 192.8C567.197 199.067 556.331 202.2 542.464 202.2ZM661.945 202.2C651.145 202.2 641.545 199.733 633.145 194.8C624.745 189.733 618.212 182.867 613.545 174.2C608.879 165.4 606.545 155.6 606.545 144.8C606.545 134.667 608.612 125.133 612.745 116.2C617.012 107.267 623.279 100.067 631.545 94.6C639.812 89.1333 649.745 86.4 661.345 86.4C671.212 86.4 680.279 88.5333 688.545 92.8C696.945 97.0667 703.679 103.467 708.745 112C713.812 120.4 716.345 130.667 716.345 142.8V148.8H628.945C629.345 153.2 630.412 157.2 632.145 160.8C634.812 167.6 638.812 173 644.145 177C649.479 181 655.545 183 662.345 183C669.412 183 675.479 181.2 680.545 177.6C685.612 173.867 689.279 169.133 691.545 163.4H714.545C710.812 174.867 704.479 184.2 695.545 191.4C686.745 198.6 675.545 202.2 661.945 202.2ZM693.545 131C693.012 126.867 691.879 123.333 690.145 120.4C687.479 115.333 683.612 111.467 678.545 108.8C673.612 106 668.145 104.6 662.145 104.6C655.879 104.6 650.345 106 645.545 108.8C640.745 111.467 636.945 115.333 634.145 120.4C632.545 123.067 631.279 126.6 630.345 131H693.545ZM796.298 86.4C806.032 86.4 814.632 88.8667 822.098 93.8C829.565 98.6 835.298 105.4 839.298 114.2C843.432 123 845.498 133 845.498 144.2C845.498 155.533 843.432 165.6 839.298 174.4C835.298 183.2 829.565 190.067 822.098 195C814.632 199.8 806.032 202.2 796.298 202.2C788.965 202.2 782.698 200.933 777.498 198.4C772.298 195.733 767.232 191.067 762.298 184.4V241.2H740.298V88.6H762.298V104.2C767.232 97.6667 772.298 93.0667 777.498 90.4C782.698 87.7333 788.965 86.4 796.298 86.4ZM792.298 105.6C786.165 105.6 780.632 107.267 775.698 110.6C770.898 113.8 767.098 118.333 764.298 124.2C761.632 130.067 760.298 136.733 760.298 144.2C760.298 151.667 761.632 158.4 764.298 164.4C767.098 170.267 770.898 174.867 775.698 178.2C780.632 181.4 786.165 183 792.298 183C801.765 183 809.298 179.4 814.898 172.2C820.632 164.867 823.498 155.533 823.498 144.2C823.498 132.867 820.632 123.6 814.898 116.4C809.298 109.2 801.765 105.6 792.298 105.6ZM895.633 200C886.966 200 880.433 198 876.033 194C871.633 190 869.433 183.267 869.433 173.8V47.4H891.433V168.4C891.433 173.067 892.166 176.4 893.633 178.4C895.099 180.4 898.099 181.4 902.633 181.4H908.833V200H895.633ZM961.445 202.2C950.512 202.2 941.712 199.333 935.045 193.6C928.379 187.733 925.045 179.8 925.045 169.8C925.045 159.533 929.045 151.467 937.045 145.6C943.045 141.2 951.645 137.933 962.845 135.8L999.245 128.8C999.112 121.067 997.045 115.133 993.045 111C988.645 106.6 982.779 104.4 975.445 104.4C969.445 104.4 964.179 106.133 959.645 109.6C955.245 112.933 952.445 117.467 951.245 123.2H929.445C931.312 111.467 936.579 102.4 945.245 96C953.912 89.6 964.045 86.4 975.645 86.4C982.179 86.4 988.312 87.4 994.045 89.4C999.912 91.2667 1004.85 94.0667 1008.85 97.8C1014.18 102.733 1017.51 108.533 1018.85 115.2C1020.31 121.867 1021.05 129.533 1021.05 138.2V200H999.045V183.6C995.979 188.8 992.112 192.867 987.445 195.8C980.779 200.067 972.112 202.2 961.445 202.2ZM965.845 184C971.712 184 977.045 182.8 981.845 180.4C988.379 177.067 992.912 172.667 995.445 167.2C998.112 161.6 999.445 154.4 999.445 145.6L968.045 151.8C960.312 153.4 954.712 155.8 951.245 159C948.445 161.8 947.045 165.2 947.045 169.2C947.045 173.867 948.712 177.533 952.045 180.2C955.512 182.733 960.112 184 965.845 184ZM1083.64 200C1074.98 200 1068.44 198 1064.04 194C1059.64 190 1057.44 183.267 1057.44 173.8V107H1040.24V88.6H1057.44V47.4H1079.44V88.6H1102.64V107H1079.44V168C1079.44 172.667 1080.11 176.067 1081.44 178.2C1082.78 180.333 1085.84 181.4 1090.64 181.4H1102.44V200H1083.64ZM1173.12 202.2C1162.32 202.2 1152.72 199.733 1144.32 194.8C1135.92 189.733 1129.38 182.867 1124.72 174.2C1120.05 165.4 1117.72 155.6 1117.72 144.8C1117.72 134.667 1119.78 125.133 1123.92 116.2C1128.18 107.267 1134.45 100.067 1142.72 94.6C1150.98 89.1333 1160.92 86.4 1172.52 86.4C1182.38 86.4 1191.45 88.5333 1199.72 92.8C1208.12 97.0667 1214.85 103.467 1219.92 112C1224.98 120.4 1227.52 130.667 1227.52 142.8V148.8H1140.12C1140.52 153.2 1141.58 157.2 1143.32 160.8C1145.98 167.6 1149.98 173 1155.32 177C1160.65 181 1166.72 183 1173.52 183C1180.58 183 1186.65 181.2 1191.72 177.6C1196.78 173.867 1200.45 169.133 1202.72 163.4H1225.72C1221.98 174.867 1215.65 184.2 1206.72 191.4C1197.92 198.6 1186.72 202.2 1173.12 202.2ZM1204.72 131C1204.18 126.867 1203.05 123.333 1201.32 120.4C1198.65 115.333 1194.78 111.467 1189.72 108.8C1184.78 106 1179.32 104.6 1173.32 104.6C1167.05 104.6 1161.52 106 1156.72 108.8C1151.92 111.467 1148.12 115.333 1145.32 120.4C1143.72 123.067 1142.45 126.6 1141.52 131H1204.72Z" fill="white"/>
<defs>
<linearGradient id="paint0_linear_138_117" x1="197.676" y1="125" x2="132.062" y2="125" gradientUnits="userSpaceOnUse">
<stop stop-color="#AD0DFF"/>
<stop offset="1" stop-color="#FFD60A"/>
</linearGradient>
</defs>
</svg>
